<?xml version="1.0" encoding="utf-8"?>
<!-- Generator: Adobe Illustrator 18.1.1, SVG Export Plug-In . SVG Version: 6.00 Build 0)  -->
<svg version="1.1" id="Layer_1" xmlns="http://www.w3.org/2000/svg" xmlns:xlink="http://www.w3.org/1999/xlink" x="0px" y="0px"
	 viewBox="0 0 30 30" enable-background="new 0 0 30 30" xml:space="preserve">
<g>
	<path fill="none" stroke="#333333" stroke-width="1.4" stroke-miterlimit="10" d="M0.5,25.1c0-5.6,1.9-9.7,6.4-11.2
		c-1.5-1.1-2.4-3-2.4-5c0-3.4,2.8-6.3,6.2-6.3S17,5.3,17,8.7c0,2-1,3.9-2.4,5c1,0.3,1.8,0.8,2.6,1.3"/>
	<g>
		<g id="_x32__1_">
			<g>
				<path fill="#333333" stroke="#333333" stroke-width="0.4" stroke-miterlimit="10" d="M25.2,22.1h-4.3c-0.2,0-0.4,0.2-0.4,0.4
					c0,0.2,0.2,0.4,0.4,0.4h4.3c0.2,0,0.4-0.2,0.4-0.4C25.7,22.3,25.5,22.1,25.2,22.1z M26.1,19.5H20c-0.2,0-0.4,0.2-0.4,0.4
					s0.2,0.4,0.4,0.4h6.1c0.2,0,0.4-0.2,0.4-0.4S26.3,19.5,26.1,19.5z M23.1,14.7c-3.8,0-6.9,2.7-6.9,6.1c0,1.9,1,3.6,2.6,4.7v3.1
					l3-1.8c0.4,0.1,0.9,0.1,1.3,0.1c3.8,0,6.9-2.7,6.9-6.1S26.9,14.7,23.1,14.7z M23.1,26c-0.5,0-1-0.1-1.5-0.2l-2,1.2l0-2
					C18,24.1,17,22.5,17,20.8c0-2.9,2.7-5.2,6.1-5.2s6.1,2.3,6.1,5.2S26.4,26,23.1,26z"/>
			</g>
		</g>
	</g>
</g>
</svg>
