<?xml version="1.0" encoding="utf-8"?>
<!-- Generator: Adobe Illustrator 18.1.1, SVG Export Plug-In . SVG Version: 6.00 Build 0)  -->
<svg version="1.1" id="Layer_1" xmlns="http://www.w3.org/2000/svg" xmlns:xlink="http://www.w3.org/1999/xlink" x="0px" y="0px"
	 viewBox="0 0 74.5 36" enable-background="new 0 0 74.5 36" xml:space="preserve">
<g>
	<path fill="#F27BAA" d="M56,36H18.4C8.5,36,0.5,28,0.5,18.1v0c0-9.9,8-17.9,17.9-17.9H56c9.9,0,17.9,8,17.9,17.9v0
		C73.9,28,65.9,36,56,36z"/>
</g>
<path fill="#FFFFFF" d="M26.9,23.8c0,0-2.1,0-4.5,0c0-1.1,0-2.2,0-2.8c3-0.4,5.3-2.9,5.3-6c0-3.3-2.7-6-6-6c-3.3,0-6,2.7-6,6
	c0,3.1,2.3,5.6,5.3,6c0,0.6,0,1.7,0,2.8c-2.3,0-4.5,0-4.5,0c-0.1,0-0.1,0.3-0.1,0.7c0,0.4,0,0.7,0.1,0.7c0,0,2.1,0,4.5,0
	c0,1.8,0,3.4,0,3.4c0,0,0.3,0.1,0.7,0.1s0.7,0,0.7-0.1c0,0,0-1.6,0-3.4c2.3,0,4.5,0,4.5,0c0.1,0,0.1-0.3,0.1-0.7
	C27,24.2,27,23.8,26.9,23.8z M17.1,15.1c0-2.5,2.1-4.6,4.6-4.6c2.5,0,4.6,2.1,4.6,4.6s-2.1,4.6-4.6,4.6
	C19.2,19.7,17.1,17.6,17.1,15.1z"/>
<circle fill="#FFFFFF" stroke="#F27BAA" stroke-miterlimit="10" cx="56.8" cy="17.6" r="17.1"/>
<path fill="#FFFFFF" d="M58.1,11.5c0,0-0.1,0.3-0.1,0.7c0,0.4,0,0.7,0.1,0.7l2.5,0c-1,1-2.5,2.5-3.2,3.2c-1.3-1-2.9-1.6-4.5-1.6
	c-1.9,0-3.7,0.7-5.1,2.1c-2.8,2.8-2.8,7.3,0,10.1c1.4,1.4,3.2,2.1,5.1,2.1c1.9,0,3.7-0.7,5.1-2.1c2.6-2.6,2.8-6.8,0.5-9.6
	c0.7-0.7,2.1-2.1,3.2-3.2l0,2.5c0,0,0.3,0.1,0.7,0.1c0.4,0,0.7,0,0.7-0.1l0-4.9L58.1,11.5z M57,25.7c-1.1,1.1-2.5,1.7-4.1,1.7
	c-1.5,0-3-0.6-4.1-1.7c-2.3-2.3-2.3-5.9,0-8.2c1.1-1.1,2.5-1.7,4.1-1.7c1.5,0,3,0.6,4.1,1.7C59.2,19.8,59.2,23.4,57,25.7z"/>
</svg>
